<?xml version="1.0" encoding="UTF-8"?>
<svg version="1.1" xmlns="http://www.w3.org/2000/svg" width="3113" height="439">
<path d="M0 0 C28.71 0 57.42 0 87 0 C87 115.17 87 230.34 87 349 C147.39 349 207.78 349 270 349 C270.33 358.24 270.66 367.48 271 377 C285.89479951 337.37444374 285.89479951 337.37444374 300.625 297.6875 C306.57510954 281.55159473 312.55457486 265.42697525 318.5625 249.3125 C318.96193817 248.24107758 319.36137634 247.16965515 319.7729187 246.06576538 C321.36558585 241.79390765 322.95836007 237.52208988 324.55134583 233.25035095 C328.43499533 222.8354014 332.31195345 212.41796697 336.1875 202 C336.84252571 200.23933786 337.49755499 198.47867705 338.15258789 196.71801758 C339.45121459 193.22739219 340.74979104 189.73674812 342.04833984 186.24609375 C345.69958824 176.43125957 349.35181385 166.61678896 353.00384521 156.80224609 C354.00647552 154.10774955 355.00909963 151.4132507 356.01171875 148.71875 C356.50762512 147.38602051 356.50762512 147.38602051 357.0135498 146.02636719 C358.98356853 140.73192683 360.95337618 135.437408 362.92300415 130.14282227 C368.8351221 114.25039551 374.74817273 98.35831867 380.66796875 82.46875 C381.06451157 81.40433685 381.46105438 80.33992371 381.86961365 79.24325562 C383.87691593 73.85546994 385.88471285 68.46786929 387.89331055 63.08056641 C391.84813714 52.47160724 395.79515716 41.85985004 399.7265625 31.2421875 C400.83796662 28.24367136 401.94958306 25.24523402 403.0612793 22.24682617 C403.76655064 20.34273923 404.47082629 18.43828317 405.17407227 16.53344727 C406.13708465 13.92504752 407.10334114 11.31787164 408.0703125 8.7109375 C408.35476227 7.9375705 408.63921204 7.16420349 408.93228149 6.36740112 C410.88619248 1.11380752 410.88619248 1.11380752 412 0 C414.52541002 -0.09504251 417.02337126 -0.12557158 419.54907227 -0.11352539 C420.33925751 -0.11367142 421.12944275 -0.11381744 421.943573 -0.1139679 C424.56787822 -0.11326857 427.19211336 -0.10547527 429.81640625 -0.09765625 C431.63101665 -0.09579214 433.44562756 -0.0943682 435.26023865 -0.09336853 C440.0459023 -0.08954279 444.8315358 -0.07971204 449.6171875 -0.06866455 C454.49674064 -0.05845163 459.37629864 -0.05387117 464.25585938 -0.04882812 C473.83725286 -0.03808982 483.41862393 -0.02101273 493 0 C500.99702397 20.79631374 508.87694731 41.63147173 516.60348511 62.52972412 C519.41191447 70.12491698 522.22869684 77.71701364 525.046875 85.30859375 C525.48015012 86.47580082 525.48015012 86.47580082 525.92217827 87.66658783 C532.20608433 104.58997988 538.56254204 121.48573346 544.9375 138.375 C545.47668853 139.80362806 546.01587309 141.23225762 546.55505371 142.66088867 C546.82274944 143.37016825 547.09044518 144.07944782 547.3662529 144.81022072 C548.451394 147.68538532 549.53652548 150.56055355 550.62160492 153.43574142 C551.16553415 154.87701579 551.70948455 156.31828217 552.25345612 157.75954056 C558.67245925 174.76807288 565.05714024 191.7894411 571.4375 208.8125 C572.00169599 210.31768905 572.5658948 211.82287704 573.13009644 213.32806396 C575.39091177 219.35963437 577.65154704 225.39127223 579.91184998 231.42303467 C585.26383947 245.70514395 590.61909812 259.98602632 595.97488689 274.26671124 C597.93005243 279.48003701 599.88489585 284.69348349 601.83959961 289.90698242 C607.04757253 303.79711918 612.25706358 317.68668124 617.47180176 331.57427979 C619.60140028 337.24574527 621.73024786 342.91749256 623.85894012 348.58929825 C625.29767089 352.42255954 626.73680074 356.25566981 628.17700195 360.08837891 C633.92407796 375.38331001 639.64418543 390.68756819 645.28125 406.0234375 C645.52350815 406.68105701 645.7657663 407.33867653 646.0153656 408.01622391 C646.68972432 409.84790185 647.36153528 411.68051721 648.03320312 413.51318359 C648.6051239 415.07194717 648.6051239 415.07194717 649.18859863 416.66220093 C650 419 650 419 650 420 C619.31 420 588.62 420 557 420 C554.64795892 414.11989731 552.38063765 408.39806756 550.35864258 402.42651367 C550.12557907 401.74058136 549.89251556 401.05464905 549.65238953 400.34793091 C548.89699174 398.12220696 548.14559098 395.89515992 547.39453125 393.66796875 C546.86471051 392.10235008 546.3347344 390.53678398 545.80461121 388.9712677 C544.70100563 385.7100554 543.5994203 382.44816967 542.49926758 379.18579102 C541.0910773 375.0105748 539.67755954 370.8371847 538.26251698 366.66428661 C537.16993445 363.44025447 536.08027849 360.2152391 534.99149132 356.98992348 C534.4713264 355.45026654 533.95022971 353.91092407 533.42817116 352.37190819 C532.70017761 350.22444029 531.97616957 348.0756685 531.25317383 345.92651367 C530.84110184 344.70647141 530.42902985 343.48642914 530.00447083 342.22941589 C529 339 529 339 528 334 C453.75 334.495 453.75 334.495 378 335 C372.72 350.84 367.44 366.68 362 383 C357.71 395.21 353.42 407.42 349 420 C233.5 420 118 420 -1 420 C-1.04033135 314.89202307 -1.04033135 314.89202307 -1.04882812 271.10742188 C-1.05078615 261.08455402 -1.05280667 251.06168618 -1.05493164 241.03881836 C-1.05519539 239.78252835 -1.05545914 238.52623834 -1.05573088 237.23187894 C-1.06008612 216.92148008 -1.06797318 196.61108403 -1.0771528 176.30068684 C-1.08648785 155.47342364 -1.09205529 134.64616192 -1.09408849 113.81889671 C-1.09546403 100.95623659 -1.09981627 88.09358442 -1.10791647 75.23092674 C-1.1131821 66.42340322 -1.11480471 57.61588384 -1.11350138 48.80835886 C-1.11285771 43.7187348 -1.11387872 38.6291247 -1.11920547 33.5395031 C-1.12403835 28.88809696 -1.12433939 24.23671428 -1.12089889 19.58530711 C-1.12047309 17.89485588 -1.12176976 16.20440324 -1.12488318 14.51395483 C-1.12884539 12.23151579 -1.12676451 9.94916356 -1.12304783 7.66672611 C-1.12342755 6.39428329 -1.12380727 5.12184046 -1.1241985 3.81083876 C-1 1 -1 1 0 0 Z M452 109 C442.48712114 136.65229538 433.19214309 164.3706957 424.06170654 192.15148926 C422.80116629 195.98477353 421.53813628 199.81723548 420.2750721 203.64968872 C419.02488971 207.44368113 417.77584509 211.23804735 416.52715683 215.03253174 C415.9478816 216.79266148 415.36838002 218.55271675 414.78860855 220.31268311 C410.11112711 234.51674077 405.55802473 248.75617273 401 263 C434.66 263 468.32 263 503 263 C501.69326269 257.11968209 500.34437537 251.60649064 498.42480469 245.94970703 C498.17364584 245.19737604 497.92248699 244.44504505 497.66371727 243.66991615 C496.83731078 241.19778327 496.00458416 238.72782875 495.171875 236.2578125 C494.58418792 234.50325921 493.99694756 232.74855624 493.41012573 230.99371338 C492.16919834 227.28524505 490.92567884 223.5776611 489.67999268 219.87078857 C486.7840612 211.25247871 483.901506 202.62969295 481.01840591 194.00708389 C480.38641704 192.11716412 479.75426324 190.22729949 479.12194443 188.33749008 C472.98041851 169.98207932 466.95011149 151.59263776 461.00622559 133.17227173 C458.39433049 125.09603007 455.6968994 117.04817153 453 109 C452.67 109 452.34 109 452 109 Z " fill="#FDFDFD" transform="translate(991,9)"/>
<path d="M0 0 C29.04 0 58.08 0 88 0 C94.14057297 9.82491675 100.25466988 19.65070917 106.25 29.5625 C106.98464875 30.77506441 107.71943358 31.98754638 108.4543457 33.19995117 C109.5694903 35.03963634 110.68457868 36.87935511 111.79927063 38.71931458 C115.25413928 44.42183951 118.71943461 50.11799183 122.1875 55.8125 C122.75307617 56.7413501 123.31865234 57.6702002 123.90136719 58.62719727 C125.03363878 60.48668569 126.16596264 62.34614229 127.29833984 64.20556641 C130.19959437 68.96995081 133.09973207 73.73501498 136 78.5 C137.16666151 80.41666981 138.33332817 82.33333648 139.5 84.25 C146.5 95.75 153.5 107.25 160.5 118.75 C161.0772583 119.69834717 161.6545166 120.64669434 162.24926758 121.6237793 C163.4183963 123.54450241 164.5875043 125.46523813 165.7565918 127.38598633 C168.63542115 132.11569192 171.51458529 136.84519297 174.39453125 141.57421875 C181.13454625 152.64268376 187.86536441 163.716694 194.5894165 174.79486084 C201.15023869 185.60380342 207.72164214 196.40627594 214.29833984 207.20556641 C216.61420573 211.00863683 218.92934727 214.81214792 221.24438477 218.61572266 C222.41009312 220.53084969 223.57594482 222.44588947 224.74194336 224.36083984 C227.71110997 229.23747863 230.6779085 234.11553323 233.640625 238.99609375 C234.24519531 239.99125 234.84976562 240.98640625 235.47265625 242.01171875 C236.60108719 243.86928968 237.72877871 245.72731014 238.85546875 247.5859375 C243.83049228 255.77222316 248.92134047 263.87414475 254 272 C254.33 182.24 254.66 92.48 255 0 C283.71 0 312.42 0 342 0 C342 138.6 342 277.2 342 420 C313.29 420 284.58 420 255 420 C247.13158483 408.7594069 247.13158483 408.7594069 244.30859375 403.92578125 C243.68130371 402.85811523 243.05401367 401.79044922 242.40771484 400.69042969 C241.75754395 399.57571289 241.10737305 398.46099609 240.4375 397.3125 C239.02450406 394.90615573 237.60807995 392.50183675 236.19140625 390.09765625 C235.83784058 389.49694305 235.4842749 388.89622986 235.11999512 388.27731323 C231.75663153 382.57002462 228.32734725 376.90388668 224.875 371.25 C224.02119751 369.85164917 224.02119751 369.85164917 223.15014648 368.42504883 C222.00644644 366.55328885 220.86232447 364.68178661 219.71777344 362.81054688 C216.80488501 358.04460436 213.90307031 353.27192687 211 348.5 C209.83338495 346.58330191 208.66671832 344.66663523 207.5 342.75 C177.16666667 292.91666667 146.83333333 243.08333333 116.5 193.25 C115.63242065 191.82469971 115.63242065 191.82469971 114.74731445 190.37060547 C113.58957892 188.46859983 112.43186382 186.56658176 111.27416992 184.66455078 C108.22103087 179.64846419 105.1674575 174.63264264 102.11328125 169.6171875 C101.47712891 168.57240234 100.84097656 167.52761719 100.18554688 166.45117188 C98.96692775 164.4497901 97.74818437 162.44848397 96.52929688 160.44726562 C95.97951172 159.54427734 95.42972656 158.64128906 94.86328125 157.7109375 C94.38157471 156.91993652 93.89986816 156.12893555 93.40356445 155.31396484 C91.92770586 152.88081338 90.46413457 150.44022429 89 148 C88.67 237.76 88.34 327.52 88 420 C58.96 420 29.92 420 0 420 C0 281.4 0 142.8 0 0 Z " fill="#FEFEFE" transform="translate(1645,9)"/>
<path d="M0 0 C26.58983677 -0.64265467 52.96792575 2.93165338 77.69384766 13.06640625 C78.49951172 13.39656738 79.30517578 13.72672852 80.13525391 14.06689453 C97.0209055 21.10150854 111.11008621 29.83351611 124.69384766 42.06640625 C125.69158203 42.95585938 125.69158203 42.95585938 126.70947266 43.86328125 C148.18565587 64.13519251 158.88461667 93.55677925 160.26806641 122.56640625 C160.31040405 123.38882813 160.3527417 124.21125 160.3963623 125.05859375 C160.4989578 127.06102494 160.59689477 129.06369393 160.69384766 131.06640625 C149.36773136 131.0895288 138.04162063 131.10732089 126.71548557 131.11821842 C121.45688102 131.12344744 116.19829256 131.13054543 110.93969727 131.1418457 C105.86931639 131.15267391 100.79895104 131.15868294 95.72855949 131.16128349 C93.78957818 131.16313786 91.85059775 131.1667587 89.911623 131.17213631 C87.20563006 131.17934585 84.4997021 131.18039723 81.79370117 131.17993164 C80.9837822 131.18352692 80.17386322 131.18712219 79.33940125 131.19082642 C73.80789982 131.18045841 73.80789982 131.18045841 72.69384766 130.06640625 C72.48010189 128.34585868 72.27257315 126.62426998 72.09936523 124.89916992 C70.5162059 109.32109478 65.80024539 95.198876 53.31884766 84.91015625 C32.72946285 70.44856454 7.8054715 69.1821629 -16.30615234 73.06640625 C-30.66205696 75.66250397 -44.99083247 82.21245843 -53.68115234 94.37890625 C-60.31564817 105.46152995 -62.03129153 116.48094979 -59.75146484 129.1484375 C-55.20177674 144.29239933 -41.34020056 152.02393178 -28.30615234 159.06640625 C-11.05308455 168.30896229 7.92776994 174.20221493 26.46032715 180.29122925 C40.79097152 185.00129469 54.90763403 189.9032213 68.69384766 196.06640625 C69.56992676 196.45505859 70.44600586 196.84371094 71.34863281 197.24414062 C89.1395951 205.21110481 105.62975076 214.64842319 120.69384766 227.06640625 C121.51240234 227.7315625 122.33095703 228.39671875 123.17431641 229.08203125 C145.45011429 247.94552963 157.67957943 276.09720004 160.28393555 304.76586914 C162.47952232 333.77778297 155.70052427 362.5941066 136.69384766 385.06640625 C109.67859707 415.73079377 71.37319691 428.59745889 31.43554688 431.83935547 C-24.22072635 435.21664466 -79.34451638 424.86522858 -122.40014648 387.52124023 C-144.70574026 367.71969044 -158.36979419 339.7236236 -161.30615234 310.06640625 C-161.30615234 304.45640625 -161.30615234 298.84640625 -161.30615234 293.06640625 C-132.59615234 293.06640625 -103.88615234 293.06640625 -74.30615234 293.06640625 C-73.81115234 299.99640625 -73.81115234 299.99640625 -73.30615234 307.06640625 C-70.75770931 322.53518143 -64.55400863 337.25399729 -51.77490234 346.99609375 C-29.37379266 361.99453788 0.97544145 365.53715182 27.14794922 360.82885742 C27.9880957 360.65974854 28.82824219 360.49063965 29.69384766 360.31640625 C30.47469727 360.15954346 31.25554687 360.00268066 32.06005859 359.84106445 C44.67363568 356.9985106 57.64903092 350.36878849 65.69384766 340.06640625 C72.35010941 329.37912592 73.81574386 316.85034692 71.63916016 304.58984375 C67.5054985 289.18255938 58.56650767 280.91736683 45.17431641 272.99609375 C28.975597 264.01498557 11.39414235 258.0621223 -6.06005859 252.0234375 C-56.66147539 234.50920288 -113.47114686 214.49781103 -139.22119141 163.54931641 C-150.57651589 140.04169417 -152.40873269 109.83981283 -144.30615234 85.06640625 C-144.09716309 84.41575195 -143.88817383 83.76509766 -143.67285156 83.09472656 C-133.86031143 53.62035509 -110.48067135 32.70756138 -83.49365234 18.94140625 C-57.3916786 6.04168545 -28.96047682 0.83392438 0 0 Z " fill="#FEFEFE" transform="translate(161.30615234375,2.93359375)"/>
<path d="M0 0 C92.73 0 185.46 0 281 0 C281 23.43 281 46.86 281 71 C216.98 71 152.96 71 87 71 C87 103.67 87 136.34 87 170 C141.45 170 195.9 170 252 170 C252 192.44 252 214.88 252 238 C197.55 238 143.1 238 87 238 C87 274.63 87 311.26 87 349 C151.02 349 215.04 349 281 349 C281 372.43 281 395.86 281 420 C188.27 420 95.54 420 0 420 C0 281.4 0 142.8 0 0 Z " fill="#FEFEFE" transform="translate(346,9)"/>
<path d="M0 0 C193.73970357 0 193.73970357 0 215.875 5.6875 C216.89198975 5.94168701 217.90897949 6.19587402 218.95678711 6.45776367 C254.02991367 15.61168257 284.01268533 35.83391371 303 67 C303.5580835 67.90371338 303.5580835 67.90371338 304.12744141 68.82568359 C313.55602572 84.36941486 318.72235551 102.04999224 321 120 C321.14179687 121.08410156 321.28359375 122.16820312 321.4296875 123.28515625 C323.28106844 141.86669909 321.71271771 160.96332635 317 179 C316.82484863 179.6717627 316.64969727 180.34352539 316.46923828 181.03564453 C312.23416553 196.57730374 304.24263467 210.6517366 294 223 C293.28070312 223.87140625 292.56140625 224.7428125 291.8203125 225.640625 C286.45661961 231.86327226 280.52131422 237.02246891 274 242 C273.25621094 242.58265625 272.51242187 243.1653125 271.74609375 243.765625 C239.6334555 267.66859747 198.06471531 273.61516085 159.09375 273.29296875 C157.25163041 273.28853568 155.40950697 273.28548891 153.56738281 273.28381348 C146.87819606 273.26834215 140.18909118 273.22646223 133.5 273.1875 C118.485 273.125625 103.47 273.06375 88 273 C88 321.51 88 370.02 88 420 C58.96 420 29.92 420 0 420 C0 281.4 0 142.8 0 0 Z M88 71 C88 114.23 88 157.46 88 202 C102.19 202.061875 116.38 202.12375 131 202.1875 C137.67283203 202.22846802 137.67283203 202.22846802 144.48046875 202.27026367 C148.53576316 202.28030884 148.53576316 202.28030884 152.59106445 202.28633118 C154.37038436 202.29087986 156.14969617 202.30130731 157.92895508 202.31672668 C178.47205022 202.48555636 198.46338546 200.49114508 215 187 C215.69738281 186.45085937 216.39476562 185.90171875 217.11328125 185.3359375 C228.45536328 175.33728654 233.05938556 159.59099478 234 145 C235.12705628 126.55726089 230.30672184 107.38448297 218.10961914 93.26391602 C205.23898081 78.99684105 188.9262245 72.81640807 170 71 C167.18673532 70.87562283 164.38009355 70.87277337 161.56445312 70.88647461 C160.75068962 70.88635407 159.93692612 70.88623354 159.09850311 70.88610935 C156.4927232 70.88684926 153.88701693 70.89443502 151.28125 70.90234375 C149.66113316 70.90381603 148.04101585 70.90483498 146.42089844 70.90539551 C140.44725832 70.91061525 134.47362842 70.9245765 128.5 70.9375 C108.4525 70.9684375 108.4525 70.9684375 88 71 Z " fill="#FEFEFE" transform="translate(644,9)"/>
<path d="M0 0 C8.58 0 17.16 0 26 0 C26 144.87 26 289.74 26 439 C17.42 439 8.84 439 0 439 C0 294.13 0 149.26 0 0 Z " fill="#FECC00" transform="translate(2111,0)"/>
<path d="M0 0 C4.62 0 9.24 0 14 0 C17.54066922 6.7634008 20.39106655 13.71932943 23.203125 20.8125 C23.6857782 22.02196289 24.1684314 23.23142578 24.66571045 24.47753906 C25.93788666 27.66555149 27.20590912 30.85519957 28.47302246 34.04522705 C29.77113757 37.31111336 31.07324504 40.57540697 32.375 43.83984375 C34.92053791 50.2250245 37.46168356 56.61194516 40 63 C43.54066922 56.2365992 46.39106655 49.28067057 49.203125 42.1875 C49.6857782 40.97803711 50.1684314 39.76857422 50.66571045 38.52246094 C51.93788666 35.33444851 53.20590912 32.14480043 54.47302246 28.95477295 C55.77113757 25.68888664 57.07324504 22.42459303 58.375 19.16015625 C60.92053791 12.7749755 63.46168356 6.38805484 66 0 C68.31243792 -0.02685412 70.6249627 -0.04632841 72.9375 -0.0625 C74.22527344 -0.07410156 75.51304687 -0.08570313 76.83984375 -0.09765625 C80 0 80 0 81 1 C81.09502416 3.49492388 81.12557566 5.96206014 81.11352539 8.45727539 C81.11367142 9.23770706 81.11381744 10.01813873 81.1139679 10.82221985 C81.11326858 13.4140598 81.10547536 16.00582878 81.09765625 18.59765625 C81.09579213 20.3898464 81.0943682 22.18203706 81.09336853 23.97422791 C81.08954284 28.70070797 81.07971212 33.42715752 81.06866455 38.15362549 C81.05845153 42.9728555 81.05387115 47.79209042 81.04882812 52.61132812 C81.03808989 62.07423219 81.02101286 71.53711356 81 81 C77.04 81 73.08 81 69 81 C69 61.53 69 42.06 69 22 C62.59621847 38.04891456 62.59621847 38.04891456 56.19628906 54.09936523 C55.38620596 56.12749663 54.57599312 58.15557622 53.765625 60.18359375 C53.35425293 61.21713989 52.94288086 62.25068604 52.51904297 63.31555176 C50.13680747 69.27185034 47.64481512 75.15538345 45 81 C42.03 81 39.06 81 36 81 C33.02659484 75.23136195 30.44221531 69.40585237 28.03125 63.3828125 C27.66906372 62.48561493 27.30687744 61.58841736 26.93371582 60.66403198 C25.78604076 57.81892683 24.64295746 54.97200314 23.5 52.125 C22.73337371 50.22253501 21.96644915 48.32019019 21.19921875 46.41796875 C17.78607086 37.95065161 14.39056097 29.47640242 11 21 C11 40.8 11 60.6 11 81 C7.37 81 3.74 81 0 81 C0 54.27 0 27.54 0 0 Z " fill="#FEFEFE" transform="translate(2743,315)"/>
<path d="M0 0 C11 0 11 0 13.32421875 1.7590332 C13.77410156 2.57718506 14.22398437 3.39533691 14.6875 4.23828125 C15.23019531 5.15561035 15.77289062 6.07293945 16.33203125 7.01806641 C16.88246094 8.00210449 17.43289062 8.98614258 18 10 C19.27882109 11.96026327 20.57095653 13.91189315 21.875 15.85546875 C23.25167244 17.96505538 24.6266504 20.07574868 26 22.1875 C26.65355469 23.18974609 27.30710937 24.19199219 27.98046875 25.22460938 C30.32169075 28.81550803 32.66073704 32.40782484 35 36 C39.95 43.59 44.9 51.18 50 59 C50.33 39.53 50.66 20.06 51 0 C54.63 0 58.26 0 62 0 C62 26.73 62 53.46 62 81 C51 81 51 81 48.52734375 79.15625 C48.00269531 78.2796875 47.47804688 77.403125 46.9375 76.5 C45.98810547 74.99179687 45.98810547 74.99179687 45.01953125 73.453125 C44.69549316 72.89818359 44.37145508 72.34324219 44.03759766 71.77148438 C42.94151346 69.90014627 41.79633537 68.06697091 40.63671875 66.234375 C38.93081576 63.53419914 37.24299215 60.8239376 35.56640625 58.10546875 C33.14404941 54.20160985 30.62133096 50.37844284 28.0625 46.5625 C22.62051057 38.43310839 17.31449309 30.2133075 12 22 C11.67 41.47 11.34 60.94 11 81 C7.37 81 3.74 81 0 81 C0 54.27 0 27.54 0 0 Z " fill="#FEFEFE" transform="translate(2906,315)"/>
<path d="M0 0 C11 0 11 0 13.32421875 1.7590332 C13.77410156 2.57718506 14.22398437 3.39533691 14.6875 4.23828125 C15.23019531 5.15561035 15.77289062 6.07293945 16.33203125 7.01806641 C16.88246094 8.00210449 17.43289062 8.98614258 18 10 C19.27882109 11.96026327 20.57095653 13.91189315 21.875 15.85546875 C23.25167244 17.96505538 24.6266504 20.07574868 26 22.1875 C26.65355469 23.18974609 27.30710937 24.19199219 27.98046875 25.22460938 C30.32169075 28.81550803 32.66073704 32.40782484 35 36 C39.95 43.59 44.9 51.18 50 59 C50.33 39.53 50.66 20.06 51 0 C54.63 0 58.26 0 62 0 C62 26.73 62 53.46 62 81 C51 81 51 81 48.52734375 79.15625 C48.00269531 78.2796875 47.47804688 77.403125 46.9375 76.5 C45.98810547 74.99179687 45.98810547 74.99179687 45.01953125 73.453125 C44.69549316 72.89818359 44.37145508 72.34324219 44.03759766 71.77148438 C42.94151346 69.90014627 41.79633537 68.06697091 40.63671875 66.234375 C38.93081576 63.53419914 37.24299215 60.8239376 35.56640625 58.10546875 C33.14404941 54.20160985 30.62133096 50.37844284 28.0625 46.5625 C22.62051057 38.43310839 17.31449309 30.2133075 12 22 C11.67 41.47 11.34 60.94 11 81 C7.37 81 3.74 81 0 81 C0 54.27 0 27.54 0 0 Z " fill="#FEFEFE" transform="translate(2463,315)"/>
<path d="M0 0 C40.1037464 0 40.1037464 0 49 7 C54.58558042 12.87955833 55.44181036 18.38287533 55.43603516 26.32763672 C55.24235949 33.0963528 53.18460762 36.91093061 48.4375 41.515625 C46.09148802 43.55665543 43.58565339 45.27623107 41 47 C41.47421387 47.85231201 41.94842773 48.70462402 42.43701172 49.58276367 C44.20301965 52.75868249 45.96511983 55.93675531 47.72607422 59.11547852 C48.48738645 60.48846129 49.24974374 61.86086515 50.01318359 63.23266602 C51.11313649 65.20956963 52.2092596 67.18855499 53.3046875 69.16796875 C53.6443454 69.77650192 53.9840033 70.3850351 54.33395386 71.01200867 C56.13213538 74.27062941 57.70515574 77.50967535 59 81 C57.10927993 81.21711618 55.21131785 81.37173245 53.3125 81.5 C52.25675781 81.5928125 51.20101562 81.685625 50.11328125 81.78125 C46.60609444 80.90115293 46.34406498 80.57713233 44.5 77.6796875 C43.6474456 76.13021325 42.81592378 74.56907229 42 73 C40.96349712 71.15814592 39.92567039 69.3170364 38.88671875 67.4765625 C37.81772759 65.52745714 36.75135692 63.57691246 35.6875 61.625 C35.13771484 60.62855469 34.58792969 59.63210937 34.02148438 58.60546875 C33.50263672 57.65542969 32.98378906 56.70539063 32.44921875 55.7265625 C31.97830811 54.86627441 31.50739746 54.00598633 31.0222168 53.11962891 C30 51 30 51 30 49 C23.73 49 17.46 49 11 49 C11 59.56 11 70.12 11 81 C7.37 81 3.74 81 0 81 C0 54.27 0 27.54 0 0 Z M11 10 C11 19.57 11 29.14 11 39 C14.650625 39.0825 18.30125 39.165 22.0625 39.25 C23.19953369 39.28641602 24.33656738 39.32283203 25.50805664 39.36035156 C31.92049184 39.43025415 35.82116972 38.87708626 41 35 C44.37814936 30.31417992 44.85640619 25.59583589 44 20 C42.68175206 15.92755546 40.84034031 13.48163122 37.0625 11.31640625 C32.03876013 9.31608608 26.88338752 9.6785393 21.5625 9.8125 C18.076875 9.874375 14.59125 9.93625 11 10 Z " fill="#FEFEFE" transform="translate(2733,43)"/>
<path d="M0 0 C40.1037464 0 40.1037464 0 49 7 C54.58558042 12.87955833 55.44181036 18.38287533 55.43603516 26.32763672 C55.24235949 33.0963528 53.18460762 36.91093061 48.4375 41.515625 C46.09148802 43.55665543 43.58565339 45.27623107 41 47 C41.47421387 47.85231201 41.94842773 48.70462402 42.43701172 49.58276367 C44.20301965 52.75868249 45.96511983 55.93675531 47.72607422 59.11547852 C48.48738645 60.48846129 49.24974374 61.86086515 50.01318359 63.23266602 C51.11313649 65.20956963 52.2092596 67.18855499 53.3046875 69.16796875 C53.6443454 69.77650192 53.9840033 70.3850351 54.33395386 71.01200867 C56.13213538 74.27062941 57.70515574 77.50967535 59 81 C57.10927993 81.21711618 55.21131785 81.37173245 53.3125 81.5 C52.25675781 81.5928125 51.20101562 81.685625 50.11328125 81.78125 C46.60609444 80.90115293 46.34406498 80.57713233 44.5 77.6796875 C43.6474456 76.13021325 42.81592378 74.56907229 42 73 C40.96349712 71.15814592 39.92567039 69.3170364 38.88671875 67.4765625 C37.81772759 65.52745714 36.75135692 63.57691246 35.6875 61.625 C35.13771484 60.62855469 34.58792969 59.63210937 34.02148438 58.60546875 C33.50263672 57.65542969 32.98378906 56.70539063 32.44921875 55.7265625 C31.97830811 54.86627441 31.50739746 54.00598633 31.0222168 53.11962891 C30 51 30 51 30 49 C23.73 49 17.46 49 11 49 C11 59.56 11 70.12 11 81 C7.37 81 3.74 81 0 81 C0 54.27 0 27.54 0 0 Z M11 10 C11 19.57 11 29.14 11 39 C14.650625 39.0825 18.30125 39.165 22.0625 39.25 C23.19953369 39.28641602 24.33656738 39.32283203 25.50805664 39.36035156 C31.92049184 39.43025415 35.82116972 38.87708626 41 35 C44.37814936 30.31417992 44.85640619 25.59583589 44 20 C42.68175206 15.92755546 40.84034031 13.48163122 37.0625 11.31640625 C32.03876013 9.31608608 26.88338752 9.6785393 21.5625 9.8125 C18.076875 9.874375 14.59125 9.93625 11 10 Z " fill="#FEFEFE" transform="translate(2461,43)"/>
<path d="M0 0 C37.69307325 0 37.69307325 0 48.06640625 8.96484375 C57.08099104 18.45292188 59.4851654 30.32028709 59.35375977 43.05908203 C58.92632459 55.73610971 55.12839869 65.67836187 45.96484375 74.4609375 C32.89370405 84.69956382 15.555946 81 0 81 C0 54.27 0 27.54 0 0 Z M11 10 C11 30.46 11 50.92 11 72 C26.79349166 72.70323043 26.79349166 72.70323043 39.25 66.8125 C46.13566478 59.77034284 48.00584205 50.69147905 48.25 41.0625 C47.97620923 31.3429275 46.48681035 22.59298222 40 15 C31.66115731 7.58026823 22.00459649 10 11 10 Z " fill="#FEFEFE" transform="translate(2704,179)"/>
<path d="M0 0 C37.69307325 0 37.69307325 0 48.06640625 8.96484375 C57.08099104 18.45292188 59.4851654 30.32028709 59.35375977 43.05908203 C58.92632459 55.73610971 55.12839869 65.67836187 45.96484375 74.4609375 C32.89370405 84.69956382 15.555946 81 0 81 C0 54.27 0 27.54 0 0 Z M11 10 C11 30.46 11 50.92 11 72 C26.79349166 72.70323043 26.79349166 72.70323043 39.25 66.8125 C46.13566478 59.77034284 48.00584205 50.69147905 48.25 41.0625 C47.97620923 31.3429275 46.48681035 22.59298222 40 15 C31.66115731 7.58026823 22.00459649 10 11 10 Z " fill="#FEFEFE" transform="translate(2524,179)"/>
<path d="M0 0 C37.69307325 0 37.69307325 0 48.06640625 8.96484375 C57.08099104 18.45292188 59.4851654 30.32028709 59.35375977 43.05908203 C58.92632459 55.73610971 55.12839869 65.67836187 45.96484375 74.4609375 C32.89370405 84.69956382 15.555946 81 0 81 C0 54.27 0 27.54 0 0 Z M11 10 C11 30.46 11 50.92 11 72 C26.79349166 72.70323043 26.79349166 72.70323043 39.25 66.8125 C46.13566478 59.77034284 48.00584205 50.69147905 48.25 41.0625 C47.97620923 31.3429275 46.48681035 22.59298222 40 15 C31.66115731 7.58026823 22.00459649 10 11 10 Z " fill="#FEFEFE" transform="translate(2936,43)"/>
<path d="M0 0 C8.24663886 6.80306224 11.99089209 15.70910995 13.2265625 26.27734375 C14.59674599 41.40159273 13.41377033 55.82236865 4.08984375 68.40625 C-1.20380607 74.31311221 -7.34076494 76.85887482 -15.16015625 77.62890625 C-24.22094552 78.0343564 -32.14478973 77.2195332 -39.51953125 71.5546875 C-47.81526291 63.95154939 -51.79335572 54.25757193 -52.43359375 43.14892578 C-53.02227663 29.08823509 -52.42161474 15.74578235 -43.3125 4.25 C-31.73497404 -7.50495931 -13.67679054 -9.5968474 0 0 Z M-35.625 11.625 C-43.02206618 22.4485001 -42.43055454 37.93901088 -40.12890625 50.31640625 C-38.4373018 56.39485096 -35.4494057 62.25943454 -30.0625 65.8125 C-24.35014452 68.46061181 -17.99558936 69.10467573 -12 67.125 C-5.30268101 64.11996552 -1.98353669 58.8359385 0.6875 52.25 C2.20532573 47.15825234 1.9520003 41.95786738 2 36.6875 C2.02900391 35.65302734 2.05800781 34.61855469 2.08789062 33.55273438 C2.15809318 24.92862036 0.46528892 17.55109252 -4.25 10.25 C-8.79087084 5.84673131 -13.33193319 4.15041505 -19.5625 3.9375 C-26.3117875 4.05940831 -31.1980284 6.54379614 -35.625 11.625 Z " fill="#FEFEFE" transform="translate(2648.3125,183.75)"/>
<path d="M0 0 C8.0070375 6.60540317 11.91089906 15.35889541 13.07324219 25.67285156 C13.22157473 29.2278549 13.23392869 32.75490176 13.1875 36.3125 C13.21070312 38.09624023 13.21070312 38.09624023 13.234375 39.91601562 C13.18625171 50.87007984 10.75018275 60.98432564 2.9375 69.05859375 C-4.59986125 76.13959133 -11.06094245 77.76326556 -21.30859375 77.66772461 C-29.63066659 77.35759129 -35.49014104 75.24767222 -41.625 69.625 C-52.37959883 57.89271037 -53.07719968 43.61449514 -52.46044922 28.47802734 C-51.7986507 18.51173482 -48.33808896 9.35260948 -41.2734375 2.1796875 C-29.50494369 -7.75907582 -12.75961656 -8.95327691 0 0 Z M-35.625 11.625 C-43.02206618 22.4485001 -42.43055454 37.93901088 -40.12890625 50.31640625 C-38.4373018 56.39485096 -35.4494057 62.25943454 -30.0625 65.8125 C-24.35014452 68.46061181 -17.99558936 69.10467573 -12 67.125 C-5.30268101 64.11996552 -1.98353669 58.8359385 0.6875 52.25 C2.20532573 47.15825234 1.9520003 41.95786738 2 36.6875 C2.02900391 35.65302734 2.05800781 34.61855469 2.08789062 33.55273438 C2.15809318 24.92862036 0.46528892 17.55109252 -4.25 10.25 C-8.79087084 5.84673131 -13.33193319 4.15041505 -19.5625 3.9375 C-26.3117875 4.05940831 -31.1980284 6.54379614 -35.625 11.625 Z " fill="#FEFEFE" transform="translate(3100.3125,319.75)"/>
<path d="M0 0 C5.19861586 4.25341298 9.28547614 8.51319026 10.75 15.25 C10.75 16.9 10.75 18.55 10.75 20.25 C7.12 20.25 3.49 20.25 -0.25 20.25 C-0.765625 18.6825 -1.28125 17.115 -1.8125 15.5 C-3.44325749 11.54359179 -4.81870601 8.67558945 -8.92578125 6.8046875 C-14.80540428 5.40148335 -21.65628297 4.9808675 -27.41796875 7.015625 C-30.33220006 8.82892448 -32.28523799 10.96980917 -33.25 14.25 C-33.60294375 17.56767127 -33.43925582 19.75320346 -32.25 22.875 C-27.62831886 28.36324635 -19.96600753 30.1051092 -13.3125 32.125 C-4.51549714 34.93368164 3.55740705 38.14955501 8.75 46.25 C11.48424621 52.15597181 11.77867275 58.21815513 10.16796875 64.53125 C7.33252953 71.26379976 1.54515808 74.67138724 -4.9921875 77.390625 C-14.00828029 79.76897082 -25.70443339 79.71958877 -34.140625 75.57421875 C-40.6945629 71.45980218 -45.86929145 66.80417136 -48.25 59.25 C-48.5 55.75 -48.5 55.75 -48.25 53.25 C-44.62 53.25 -40.99 53.25 -37.25 53.25 C-36.858125 54.466875 -36.46625 55.68375 -36.0625 56.9375 C-34.14926825 61.98878943 -31.55824001 65.06773073 -26.6875 67.5625 C-19.13481996 69.07303601 -11.54546105 69.49840919 -4.74609375 65.44140625 C-2.3762216 63.55417125 -1.7264406 62.24476952 -1.25 59.25 C-1.41478195 55.43005474 -2.03740424 51.88778729 -3.25 48.25 C-5.33628565 47.14486819 -5.33628565 47.14486819 -8.25 46.25 C-9.76571653 45.73334137 -11.28133132 45.2163842 -12.796875 44.69921875 C-15.39344009 43.81852404 -17.99044096 42.94065995 -20.59375 42.08007812 C-28.24467027 39.4660137 -36.0481585 36.5272886 -41.25 30.0625 C-42.0853125 29.05123047 -42.0853125 29.05123047 -42.9375 28.01953125 C-46.58168003 23.10639567 -45.83387168 17.10932408 -45.25 11.25 C-42.98436551 4.38678527 -37.48696083 0.44197996 -31.25 -2.75 C-20.92836123 -6.92684993 -9.59117981 -5.16448144 0 0 Z " fill="#FEFEFE" transform="translate(2363.25,182.75)"/>
<path d="M0 0 C5.19861586 4.25341298 9.28547614 8.51319026 10.75 15.25 C10.75 16.9 10.75 18.55 10.75 20.25 C7.12 20.25 3.49 20.25 -0.25 20.25 C-0.765625 18.6825 -1.28125 17.115 -1.8125 15.5 C-3.44325749 11.54359179 -4.81870601 8.67558945 -8.92578125 6.8046875 C-14.80540428 5.40148335 -21.65628297 4.9808675 -27.41796875 7.015625 C-30.33220006 8.82892448 -32.28523799 10.96980917 -33.25 14.25 C-33.60294375 17.56767127 -33.43925582 19.75320346 -32.25 22.875 C-27.62831886 28.36324635 -19.96600753 30.1051092 -13.3125 32.125 C-4.51549714 34.93368164 3.55740705 38.14955501 8.75 46.25 C11.48424621 52.15597181 11.77867275 58.21815513 10.16796875 64.53125 C7.33252953 71.26379976 1.54515808 74.67138724 -4.9921875 77.390625 C-14.00828029 79.76897082 -25.70443339 79.71958877 -34.140625 75.57421875 C-40.6945629 71.45980218 -45.86929145 66.80417136 -48.25 59.25 C-48.5 55.75 -48.5 55.75 -48.25 53.25 C-44.62 53.25 -40.99 53.25 -37.25 53.25 C-36.858125 54.466875 -36.46625 55.68375 -36.0625 56.9375 C-34.14926825 61.98878943 -31.55824001 65.06773073 -26.6875 67.5625 C-19.13481996 69.07303601 -11.54546105 69.49840919 -4.74609375 65.44140625 C-2.3762216 63.55417125 -1.7264406 62.24476952 -1.25 59.25 C-1.41478195 55.43005474 -2.03740424 51.88778729 -3.25 48.25 C-5.33628565 47.14486819 -5.33628565 47.14486819 -8.25 46.25 C-9.76571653 45.73334137 -11.28133132 45.2163842 -12.796875 44.69921875 C-15.39344009 43.81852404 -17.99044096 42.94065995 -20.59375 42.08007812 C-28.24467027 39.4660137 -36.0481585 36.5272886 -41.25 30.0625 C-42.0853125 29.05123047 -42.0853125 29.05123047 -42.9375 28.01953125 C-46.58168003 23.10639567 -45.83387168 17.10932408 -45.25 11.25 C-42.98436551 4.38678527 -37.48696083 0.44197996 -31.25 -2.75 C-20.92836123 -6.92684993 -9.59117981 -5.16448144 0 0 Z " fill="#FEFEFE" transform="translate(2299.25,46.75)"/>
<path d="M0 0 C16.83 0 33.66 0 51 0 C51 3.3 51 6.6 51 10 C37.8 10 24.6 10 11 10 C11 18.25 11 26.5 11 35 C22.55 35 34.1 35 46 35 C46 37.97 46 40.94 46 44 C34.45 44 22.9 44 11 44 C11 53.24 11 62.48 11 72 C24.53 72 38.06 72 52 72 C52 74.97 52 77.94 52 81 C34.84 81 17.68 81 0 81 C0 54.27 0 27.54 0 0 Z " fill="#FEFEFE" transform="translate(2842,315)"/>
<path d="M0 0 C16.83 0 33.66 0 51 0 C51 3.3 51 6.6 51 10 C37.8 10 24.6 10 11 10 C11 18.25 11 26.5 11 35 C22.55 35 34.1 35 46 35 C46 37.97 46 40.94 46 44 C34.45 44 22.9 44 11 44 C11 53.24 11 62.48 11 72 C24.53 72 38.06 72 52 72 C52 74.97 52 77.94 52 81 C34.84 81 17.68 81 0 81 C0 54.27 0 27.54 0 0 Z " fill="#FEFEFE" transform="translate(2544,315)"/>
<path d="M0 0 C16.83 0 33.66 0 51 0 C51 3.3 51 6.6 51 10 C37.8 10 24.6 10 11 10 C11 18.25 11 26.5 11 35 C22.55 35 34.1 35 46 35 C46 37.97 46 40.94 46 44 C34.45 44 22.9 44 11 44 C11 53.24 11 62.48 11 72 C24.53 72 38.06 72 52 72 C52 74.97 52 77.94 52 81 C34.84 81 17.68 81 0 81 C0 54.27 0 27.54 0 0 Z " fill="#FEFEFE" transform="translate(2779,179)"/>
<path d="M0 0 C16.83 0 33.66 0 51 0 C51 3.3 51 6.6 51 10 C37.8 10 24.6 10 11 10 C11 18.25 11 26.5 11 35 C22.55 35 34.1 35 46 35 C46 37.97 46 40.94 46 44 C34.45 44 22.9 44 11 44 C11 53.24 11 62.48 11 72 C24.53 72 38.06 72 52 72 C52 74.97 52 77.94 52 81 C34.84 81 17.68 81 0 81 C0 54.27 0 27.54 0 0 Z " fill="#FEFEFE" transform="translate(2256,179)"/>
<path d="M0 0 C16.83 0 33.66 0 51 0 C51 3.3 51 6.6 51 10 C37.8 10 24.6 10 11 10 C11 18.25 11 26.5 11 35 C22.55 35 34.1 35 46 35 C46 37.97 46 40.94 46 44 C34.45 44 22.9 44 11 44 C11 53.24 11 62.48 11 72 C24.53 72 38.06 72 52 72 C52 74.97 52 77.94 52 81 C34.84 81 17.68 81 0 81 C0 54.27 0 27.54 0 0 Z " fill="#FEFEFE" transform="translate(3011,43)"/>
<path d="M0 0 C16.83 0 33.66 0 51 0 C51 3.3 51 6.6 51 10 C37.8 10 24.6 10 11 10 C11 18.25 11 26.5 11 35 C22.55 35 34.1 35 46 35 C46 37.97 46 40.94 46 44 C34.45 44 22.9 44 11 44 C11 53.24 11 62.48 11 72 C24.53 72 38.06 72 52 72 C52 74.97 52 77.94 52 81 C34.84 81 17.68 81 0 81 C0 54.27 0 27.54 0 0 Z " fill="#FEFEFE" transform="translate(2531,43)"/>
<path d="M0 0 C16.83 0 33.66 0 51 0 C51 3.3 51 6.6 51 10 C37.8 10 24.6 10 11 10 C11 18.25 11 26.5 11 35 C22.55 35 34.1 35 46 35 C46 37.97 46 40.94 46 44 C34.45 44 22.9 44 11 44 C11 53.24 11 62.48 11 72 C24.53 72 38.06 72 52 72 C52 74.97 52 77.94 52 81 C34.84 81 17.68 81 0 81 C0 54.27 0 27.54 0 0 Z " fill="#FEFEFE" transform="translate(2323,43)"/>
<path d="M0 0 C42.4 0 42.4 0 51 7 C56.56146871 12.60794337 58.29480678 17.4615834 58.375 25.3125 C58.3340062 32.51955901 57.2496388 37.24179704 52.52734375 42.703125 C45.50507746 49.54277916 36.61893419 50.33864006 27.21240234 50.27026367 C25.94605957 50.24295166 24.6797168 50.21563965 23.375 50.1875 C19.29125 50.125625 15.2075 50.06375 11 50 C11 60.23 11 70.46 11 81 C7.37 81 3.74 81 0 81 C0 54.27 0 27.54 0 0 Z M11 10 C11 20.23 11 30.46 11 41 C15.6715625 41.061875 15.6715625 41.061875 20.4375 41.125 C21.88080688 41.15231201 21.88080688 41.15231201 23.35327148 41.18017578 C30.2579125 41.22385375 36.9533687 40.87983633 42.9375 37.1875 C46.94431726 32.93784533 47.40038198 28.86905948 47.25 23.2109375 C46.72540613 18.57156045 44.86637249 15.80139455 41.5 12.6875 C37.64310225 10.08409402 34.78385456 9.87926977 30.23828125 9.90234375 C29.23063721 9.90484131 28.22299316 9.90733887 27.18481445 9.90991211 C25.90695068 9.91901611 24.62908691 9.92812012 23.3125 9.9375 C19.249375 9.958125 15.18625 9.97875 11 10 Z " fill="#FEFEFE" transform="translate(2256,315)"/>
<path d="M0 0 C3.3 0 6.6 0 10 0 C14.51796666 11.67487546 19.03133188 23.35151464 23.53755188 35.03092957 C25.71052212 40.66229342 27.88723549 46.29218 30.06846619 51.92034912 C31.28641411 55.06589887 32.5002343 58.21302843 33.71279907 61.36065674 C34.27789813 62.82500674 34.84476454 64.28867598 35.41342163 65.75164795 C36.19822218 67.77148023 36.9768256 69.79359388 37.75390625 71.81640625 C38.40854858 73.50938843 38.40854858 73.50938843 39.07641602 75.23657227 C40 78 40 78 40 81 C36.37 81 32.74 81 29 81 C28.2272795 79.16746128 27.45693039 77.33392258 26.6875 75.5 C26.25824219 74.4790625 25.82898437 73.458125 25.38671875 72.40625 C23.85073513 68.63335501 22.43032634 64.81420357 21 61 C10.11 60.67 -0.78 60.34 -12 60 C-12.33 61.65 -12.66 63.3 -13 65 C-13.43731488 66.34055251 -13.90683869 67.67108849 -14.41015625 68.98828125 C-14.67763672 69.69404297 -14.94511719 70.39980469 -15.22070312 71.12695312 C-15.49849609 71.84818359 -15.77628906 72.56941406 -16.0625 73.3125 C-16.48499023 74.42334961 -16.48499023 74.42334961 -16.91601562 75.55664062 C-17.60718575 77.37242655 -18.30311689 79.18639899 -19 81 C-22.96 81 -26.92 81 -31 81 C-26.40159788 67.60058176 -21.37675821 54.37559922 -16.27709961 41.15991211 C-14.93361972 37.67744182 -13.59448504 34.19332307 -12.25585938 30.70898438 C-11.38827653 28.4556307 -10.52044656 26.20237216 -9.65234375 23.94921875 C-9.25949692 22.92704758 -8.86665009 21.9048764 -8.4618988 20.85173035 C-5.75724933 13.85121068 -2.91708004 6.91460085 0 0 Z M4 16 C2.28692579 20.66159688 0.57803719 25.32469814 -1.12695312 29.98925781 C-1.70782894 31.57659518 -2.28985589 33.16351177 -2.87304688 34.75 C-3.71004806 37.02755426 -4.54292756 39.30657874 -5.375 41.5859375 C-5.76872803 42.65320572 -5.76872803 42.65320572 -6.17041016 43.74203491 C-7.53239051 47.27901015 -7.53239051 47.27901015 -8 51 C0.58 51 9.16 51 18 51 C12.6924602 33.7466715 12.6924602 33.7466715 6 17 C5.34 16.67 4.68 16.34 4 16 Z " fill="#FEFEFE" transform="translate(2692,315)"/>
<path d="M0 0 C3.3 0 6.6 0 10 0 C14.51796666 11.67487546 19.03133188 23.35151464 23.53755188 35.03092957 C25.71052212 40.66229342 27.88723549 46.29218 30.06846619 51.92034912 C31.28641411 55.06589887 32.5002343 58.21302843 33.71279907 61.36065674 C34.27789813 62.82500674 34.84476454 64.28867598 35.41342163 65.75164795 C36.19822218 67.77148023 36.9768256 69.79359388 37.75390625 71.81640625 C38.40854858 73.50938843 38.40854858 73.50938843 39.07641602 75.23657227 C40 78 40 78 40 81 C36.37 81 32.74 81 29 81 C28.2272795 79.16746128 27.45693039 77.33392258 26.6875 75.5 C26.25824219 74.4790625 25.82898437 73.458125 25.38671875 72.40625 C23.85073513 68.63335501 22.43032634 64.81420357 21 61 C10.11 60.67 -0.78 60.34 -12 60 C-12.33 61.65 -12.66 63.3 -13 65 C-13.43731488 66.34055251 -13.90683869 67.67108849 -14.41015625 68.98828125 C-14.67763672 69.69404297 -14.94511719 70.39980469 -15.22070312 71.12695312 C-15.49849609 71.84818359 -15.77628906 72.56941406 -16.0625 73.3125 C-16.48499023 74.42334961 -16.48499023 74.42334961 -16.91601562 75.55664062 C-17.60718575 77.37242655 -18.30311689 79.18639899 -19 81 C-22.96 81 -26.92 81 -31 81 C-26.40159788 67.60058176 -21.37675821 54.37559922 -16.27709961 41.15991211 C-14.93361972 37.67744182 -13.59448504 34.19332307 -12.25585938 30.70898438 C-11.38827653 28.4556307 -10.52044656 26.20237216 -9.65234375 23.94921875 C-9.25949692 22.92704758 -8.86665009 21.9048764 -8.4618988 20.85173035 C-5.75724933 13.85121068 -2.91708004 6.91460085 0 0 Z M4 16 C2.28692579 20.66159688 0.57803719 25.32469814 -1.12695312 29.98925781 C-1.70782894 31.57659518 -2.28985589 33.16351177 -2.87304688 34.75 C-3.71004806 37.02755426 -4.54292756 39.30657874 -5.375 41.5859375 C-5.76872803 42.65320572 -5.76872803 42.65320572 -6.17041016 43.74203491 C-7.53239051 47.27901015 -7.53239051 47.27901015 -8 51 C0.58 51 9.16 51 18 51 C12.6924602 33.7466715 12.6924602 33.7466715 6 17 C5.34 16.67 4.68 16.34 4 16 Z " fill="#FEFEFE" transform="translate(2412,315)"/>
<path d="M0 0 C3.3 0 6.6 0 10 0 C14.51796666 11.67487546 19.03133188 23.35151464 23.53755188 35.03092957 C25.71052212 40.66229342 27.88723549 46.29218 30.06846619 51.92034912 C31.28641411 55.06589887 32.5002343 58.21302843 33.71279907 61.36065674 C34.27789813 62.82500674 34.84476454 64.28867598 35.41342163 65.75164795 C36.19822218 67.77148023 36.9768256 69.79359388 37.75390625 71.81640625 C38.40854858 73.50938843 38.40854858 73.50938843 39.07641602 75.23657227 C40 78 40 78 40 81 C36.37 81 32.74 81 29 81 C28.2272795 79.16746128 27.45693039 77.33392258 26.6875 75.5 C26.25824219 74.4790625 25.82898437 73.458125 25.38671875 72.40625 C23.85073513 68.63335501 22.43032634 64.81420357 21 61 C10.11 60.67 -0.78 60.34 -12 60 C-12.33 61.65 -12.66 63.3 -13 65 C-13.43731488 66.34055251 -13.90683869 67.67108849 -14.41015625 68.98828125 C-14.67763672 69.69404297 -14.94511719 70.39980469 -15.22070312 71.12695312 C-15.49849609 71.84818359 -15.77628906 72.56941406 -16.0625 73.3125 C-16.48499023 74.42334961 -16.48499023 74.42334961 -16.91601562 75.55664062 C-17.60718575 77.37242655 -18.30311689 79.18639899 -19 81 C-22.96 81 -26.92 81 -31 81 C-26.40159788 67.60058176 -21.37675821 54.37559922 -16.27709961 41.15991211 C-14.93361972 37.67744182 -13.59448504 34.19332307 -12.25585938 30.70898438 C-11.38827653 28.4556307 -10.52044656 26.20237216 -9.65234375 23.94921875 C-9.25949692 22.92704758 -8.86665009 21.9048764 -8.4618988 20.85173035 C-5.75724933 13.85121068 -2.91708004 6.91460085 0 0 Z M4 16 C2.28692579 20.66159688 0.57803719 25.32469814 -1.12695312 29.98925781 C-1.70782894 31.57659518 -2.28985589 33.16351177 -2.87304688 34.75 C-3.71004806 37.02755426 -4.54292756 39.30657874 -5.375 41.5859375 C-5.76872803 42.65320572 -5.76872803 42.65320572 -6.17041016 43.74203491 C-7.53239051 47.27901015 -7.53239051 47.27901015 -8 51 C0.58 51 9.16 51 18 51 C12.6924602 33.7466715 12.6924602 33.7466715 6 17 C5.34 16.67 4.68 16.34 4 16 Z " fill="#FEFEFE" transform="translate(2474,179)"/>
<path d="M0 0 C3.3 0 6.6 0 10 0 C14.51796666 11.67487546 19.03133188 23.35151464 23.53755188 35.03092957 C25.71052212 40.66229342 27.88723549 46.29218 30.06846619 51.92034912 C31.28641411 55.06589887 32.5002343 58.21302843 33.71279907 61.36065674 C34.27789813 62.82500674 34.84476454 64.28867598 35.41342163 65.75164795 C36.19822218 67.77148023 36.9768256 69.79359388 37.75390625 71.81640625 C38.40854858 73.50938843 38.40854858 73.50938843 39.07641602 75.23657227 C40 78 40 78 40 81 C36.37 81 32.74 81 29 81 C28.2272795 79.16746128 27.45693039 77.33392258 26.6875 75.5 C26.25824219 74.4790625 25.82898437 73.458125 25.38671875 72.40625 C23.85073513 68.63335501 22.43032634 64.81420357 21 61 C10.11 60.67 -0.78 60.34 -12 60 C-12.33 61.65 -12.66 63.3 -13 65 C-13.43731488 66.34055251 -13.90683869 67.67108849 -14.41015625 68.98828125 C-14.67763672 69.69404297 -14.94511719 70.39980469 -15.22070312 71.12695312 C-15.49849609 71.84818359 -15.77628906 72.56941406 -16.0625 73.3125 C-16.48499023 74.42334961 -16.48499023 74.42334961 -16.91601562 75.55664062 C-17.60718575 77.37242655 -18.30311689 79.18639899 -19 81 C-22.96 81 -26.92 81 -31 81 C-26.40159788 67.60058176 -21.37675821 54.37559922 -16.27709961 41.15991211 C-14.93361972 37.67744182 -13.59448504 34.19332307 -12.25585938 30.70898438 C-11.38827653 28.4556307 -10.52044656 26.20237216 -9.65234375 23.94921875 C-9.25949692 22.92704758 -8.86665009 21.9048764 -8.4618988 20.85173035 C-5.75724933 13.85121068 -2.91708004 6.91460085 0 0 Z M4 16 C2.28692579 20.66159688 0.57803719 25.32469814 -1.12695312 29.98925781 C-1.70782894 31.57659518 -2.28985589 33.16351177 -2.87304688 34.75 C-3.71004806 37.02755426 -4.54292756 39.30657874 -5.375 41.5859375 C-5.76872803 42.65320572 -5.76872803 42.65320572 -6.17041016 43.74203491 C-7.53239051 47.27901015 -7.53239051 47.27901015 -8 51 C0.58 51 9.16 51 18 51 C12.6924602 33.7466715 12.6924602 33.7466715 6 17 C5.34 16.67 4.68 16.34 4 16 Z " fill="#FEFEFE" transform="translate(2858,43)"/>
<path d="M0 0 C3.3 0 6.6 0 10 0 C14.51796666 11.67487546 19.03133188 23.35151464 23.53755188 35.03092957 C25.71052212 40.66229342 27.88723549 46.29218 30.06846619 51.92034912 C31.28641411 55.06589887 32.5002343 58.21302843 33.71279907 61.36065674 C34.27789813 62.82500674 34.84476454 64.28867598 35.41342163 65.75164795 C36.19822218 67.77148023 36.9768256 69.79359388 37.75390625 71.81640625 C38.40854858 73.50938843 38.40854858 73.50938843 39.07641602 75.23657227 C40 78 40 78 40 81 C36.37 81 32.74 81 29 81 C28.2272795 79.16746128 27.45693039 77.33392258 26.6875 75.5 C26.25824219 74.4790625 25.82898437 73.458125 25.38671875 72.40625 C23.85073513 68.63335501 22.43032634 64.81420357 21 61 C10.11 60.67 -0.78 60.34 -12 60 C-12.33 61.65 -12.66 63.3 -13 65 C-13.43731488 66.34055251 -13.90683869 67.67108849 -14.41015625 68.98828125 C-14.67763672 69.69404297 -14.94511719 70.39980469 -15.22070312 71.12695312 C-15.49849609 71.84818359 -15.77628906 72.56941406 -16.0625 73.3125 C-16.48499023 74.42334961 -16.48499023 74.42334961 -16.91601562 75.55664062 C-17.60718575 77.37242655 -18.30311689 79.18639899 -19 81 C-22.96 81 -26.92 81 -31 81 C-26.40159788 67.60058176 -21.37675821 54.37559922 -16.27709961 41.15991211 C-14.93361972 37.67744182 -13.59448504 34.19332307 -12.25585938 30.70898438 C-11.38827653 28.4556307 -10.52044656 26.20237216 -9.65234375 23.94921875 C-9.25949692 22.92704758 -8.86665009 21.9048764 -8.4618988 20.85173035 C-5.75724933 13.85121068 -2.91708004 6.91460085 0 0 Z M4 16 C2.28692579 20.66159688 0.57803719 25.32469814 -1.12695312 29.98925781 C-1.70782894 31.57659518 -2.28985589 33.16351177 -2.87304688 34.75 C-3.71004806 37.02755426 -4.54292756 39.30657874 -5.375 41.5859375 C-5.76872803 42.65320572 -5.76872803 42.65320572 -6.17041016 43.74203491 C-7.53239051 47.27901015 -7.53239051 47.27901015 -8 51 C0.58 51 9.16 51 18 51 C12.6924602 33.7466715 12.6924602 33.7466715 6 17 C5.34 16.67 4.68 16.34 4 16 Z " fill="#FEFEFE" transform="translate(2682,43)"/>
<path d="M0 0 C6.33062499 5.2097095 8.84368946 11.34703465 10.625 19.1875 C10.625 20.1775 10.625 21.1675 10.625 22.1875 C6.665 22.1875 2.705 22.1875 -1.375 22.1875 C-1.7875 20.640625 -2.2 19.09375 -2.625 17.5 C-3.89591089 13.30124301 -5.114321 10.25637436 -8.375 7.1875 C-14.75558253 4.06883876 -22.13077211 4.12575269 -28.8125 6.3125 C-34.51224064 10.48304193 -37.68014173 15.33769915 -39.375 22.1875 C-39.82366124 26.63181312 -39.83952433 31.03607206 -39.8125 35.5 C-39.83248047 36.65951172 -39.85246094 37.81902344 -39.87304688 39.01367188 C-39.86846897 47.15775919 -39.22162665 55.86530174 -33.56616211 62.2199707 C-28.46032315 66.85666672 -24.01874087 67.55574557 -17.234375 67.45703125 C-12.94582211 67.05278241 -9.68381537 65.98906773 -6.375 63.1875 C-3.40135003 59.0468653 -2.37460493 55.18552464 -1.375 50.1875 C2.585 50.1875 6.545 50.1875 10.625 50.1875 C9.1484569 59.85214576 6.33795852 66.80500366 -1.52734375 72.93359375 C-10.03356934 78.70631767 -21.09562088 78.40255426 -30.97265625 76.75390625 C-38.53605293 74.33301785 -43.86593668 68.54012808 -47.75 61.875 C-54.28602064 48.69639316 -54.60728089 30.74094646 -50.34375 16.7265625 C-46.88388848 7.65837706 -41.76950568 0.42809299 -32.6875 -3.6875 C-21.57290549 -7.46226795 -9.79532484 -6.91114586 0 0 Z " fill="#FEFEFE" transform="translate(2436.375,47.8125)"/>
<path d="M0 0 C1.09920273 0.00222061 2.19840546 0.00444122 3.33091736 0.00672913 C4.57212845 0.00680466 5.81333954 0.00688019 7.09216309 0.00695801 C8.45682311 0.01206541 9.82148274 0.01728142 11.18614197 0.02259827 C12.57476755 0.02446251 13.96339379 0.02588638 15.35202026 0.02688599 C19.01319686 0.03071065 22.67433402 0.04054048 26.335495 0.05158997 C30.06890835 0.06180519 33.80232805 0.06638384 37.53575134 0.07142639 C44.86584748 0.08216281 52.19591108 0.0992386 59.52598572 0.12025452 C59.52598572 3.42025452 59.52598572 6.72025452 59.52598572 10.12025452 C50.94598572 10.12025452 42.36598572 10.12025452 33.52598572 10.12025452 C33.52598572 33.55025452 33.52598572 56.98025452 33.52598572 81.12025452 C29.89598572 81.12025452 26.26598572 81.12025452 22.52598572 81.12025452 C22.52598572 57.69025452 22.52598572 34.26025452 22.52598572 10.12025452 C13.94598572 10.12025452 5.36598572 10.12025452 -3.47401428 10.12025452 C-3.47401428 0.16886156 -3.47401428 0.16886156 0 0 Z " fill="#FEFEFE" transform="translate(2981.4740142822266,314.87974548339844)"/>
<path d="M0 0 C1.09920273 0.00222061 2.19840546 0.00444122 3.33091736 0.00672913 C4.57212845 0.00680466 5.81333954 0.00688019 7.09216309 0.00695801 C8.45682311 0.01206541 9.82148274 0.01728142 11.18614197 0.02259827 C12.57476755 0.02446251 13.96339379 0.02588638 15.35202026 0.02688599 C19.01319686 0.03071065 22.67433402 0.04054048 26.335495 0.05158997 C30.06890835 0.06180519 33.80232805 0.06638384 37.53575134 0.07142639 C44.86584748 0.08216281 52.19591108 0.0992386 59.52598572 0.12025452 C59.52598572 3.42025452 59.52598572 6.72025452 59.52598572 10.12025452 C50.94598572 10.12025452 42.36598572 10.12025452 33.52598572 10.12025452 C33.52598572 33.55025452 33.52598572 56.98025452 33.52598572 81.12025452 C29.89598572 81.12025452 26.26598572 81.12025452 22.52598572 81.12025452 C22.52598572 57.69025452 22.52598572 34.26025452 22.52598572 10.12025452 C13.94598572 10.12025452 5.36598572 10.12025452 -3.47401428 10.12025452 C-3.47401428 0.16886156 -3.47401428 0.16886156 0 0 Z " fill="#FEFEFE" transform="translate(2383.4740142822266,178.87974548339844)"/>
<path d="M0 0 C1.09920273 0.00222061 2.19840546 0.00444122 3.33091736 0.00672913 C4.57212845 0.00680466 5.81333954 0.00688019 7.09216309 0.00695801 C8.45682311 0.01206541 9.82148274 0.01728142 11.18614197 0.02259827 C12.57476755 0.02446251 13.96339379 0.02588638 15.35202026 0.02688599 C19.01319686 0.03071065 22.67433402 0.04054048 26.335495 0.05158997 C30.06890835 0.06180519 33.80232805 0.06638384 37.53575134 0.07142639 C44.86584748 0.08216281 52.19591108 0.0992386 59.52598572 0.12025452 C59.52598572 3.42025452 59.52598572 6.72025452 59.52598572 10.12025452 C50.94598572 10.12025452 42.36598572 10.12025452 33.52598572 10.12025452 C33.52598572 33.55025452 33.52598572 56.98025452 33.52598572 81.12025452 C29.89598572 81.12025452 26.26598572 81.12025452 22.52598572 81.12025452 C22.52598572 57.69025452 22.52598572 34.26025452 22.52598572 10.12025452 C13.94598572 10.12025452 5.36598572 10.12025452 -3.47401428 10.12025452 C-3.47401428 0.16886156 -3.47401428 0.16886156 0 0 Z " fill="#FEFEFE" transform="translate(2592.4740142822266,42.87974548339844)"/>
<path d="M0 0 C3.63 0 7.26 0 11 0 C11.06973503 8.07598086 11.12292981 16.15183438 11.15543652 24.2280426 C11.17104388 27.97879732 11.19219093 31.72934492 11.22631836 35.47998047 C11.25908923 39.10451269 11.27689003 42.7288466 11.28463173 46.35351562 C11.29014364 47.73131427 11.30090661 49.10910296 11.31719017 50.48681641 C11.44005623 61.32025598 10.64054908 69.19605261 2.91796875 77.30078125 C-3.55786007 83.03802267 -11.78904488 82.62673169 -19.98828125 82.34375 C-26.84616259 81.90140796 -30.81702884 79.53433869 -35.375 74.5 C-39.91710844 68.91752035 -40.20816501 65.07761025 -40 58 C-36.37 58 -32.74 58 -29 58 C-28.6596875 59.8253125 -28.6596875 59.8253125 -28.3125 61.6875 C-27.25762752 65.967702 -25.43240185 68.16826848 -22 71 C-18.27994615 72.86002693 -14.05991138 72.43031319 -10 72 C-5.7981403 70.16646122 -4.40409436 68.81582343 -2.37182617 64.71289062 C-0.24619144 58.67429708 -0.52010772 52.42493558 -0.48828125 46.09375 C-0.47140782 44.75995255 -0.45325405 43.42617075 -0.43388367 42.09240723 C-0.38666582 38.60730887 -0.35667528 35.12227395 -0.33044434 31.63696289 C-0.30049504 28.07034785 -0.25401469 24.50395087 -0.20898438 20.9375 C-0.1232731 13.95844362 -0.05731678 6.9793468 0 0 Z " fill="#FEFEFE" transform="translate(2642,315)"/>
<path d="M0 0 C3.63 0 7.26 0 11 0 C11 23.76 11 47.52 11 72 C23.54 72 36.08 72 49 72 C49 74.97 49 77.94 49 81 C32.83 81 16.66 81 0 81 C0 54.27 0 27.54 0 0 Z " fill="#FEFEFE" transform="translate(2327,315)"/>
<path d="M0 0 C3.63 0 7.26 0 11 0 C11 26.73 11 53.46 11 81 C7.37 81 3.74 81 0 81 C0 54.27 0 27.54 0 0 Z " fill="#FEFEFE" transform="translate(2804,43)"/>
</svg>
